<svg xmlns="http://www.w3.org/2000/svg" xmlns:xlink="http://www.w3.org/1999/xlink" version="1.1" id="Layer_1" x="0px" y="0px" viewBox="0 0 512.002 512.002" style="enable-background:new 0 0 512.002 512.002;" xml:space="preserve" >
<g>
	<g>
		<path d="M492.433,19.569L475.366,2.502c-3.336-3.336-8.73-3.336-12.066,0c-3.337,3.337-3.337,8.73,0,12.066l11.034,11.034    l-42.667,42.667h-56.201c-2.27,0-4.429,0.905-6.033,2.5l-40.9,40.9l-6.767-6.767c-11.802-11.793-25.865-11.793-37.666,0    L96.367,292.636c-11.034,11.034-11.034,22.451-11.034,31.633c0,7.851,0,13.534-6.033,19.567l-51.2,51.2    c-1.126,1.126-11.034,11.366-11.034,23.1s9.907,21.973,11.034,23.1l59.733,59.733c1.126,1.126,11.375,11.034,23.1,11.034    c11.733,0,21.973-9.907,23.1-11.034c0.768-0.768,1.382-1.673,1.809-2.671l46.234-107.878l59.358,59.349    c20.403,20.403,42.863,20.403,63.266,0l17.067-17.067c3.336-3.337,3.336-8.73,0-12.066l-55.134-55.134    c9.429-7.799,14.967-19.524,14.967-32.7c0-15.224-8.098-28.834-20.599-36.412l55.987-71.996c4.104,3.593,8.38,6.912,12.843,9.916    l-17.109,29.645c-0.265-0.171-0.538-0.316-0.802-0.486c-3.942-2.611-9.225-1.519-11.827,2.415    c-2.594,3.934-1.51,9.233,2.423,11.819c2.876,1.903,5.837,3.644,8.798,5.359c0.06,0.034,0.094,0.102,0.154,0.137    c0.068,0.034,0.145,0.043,0.205,0.077c13.474,7.774,27.819,13.67,42.735,17.681c0.102,0.034,0.179,0.111,0.282,0.137    c0.188,0.051,0.358,0.034,0.546,0.077c14.831,3.908,30.191,6.025,45.807,6.033h0.026c4.719,0,8.533-3.823,8.533-8.533v-51.2    c0-4.71-3.814-8.533-8.533-8.533c-27.418,0-53.239-9.984-73.557-28.066l20.557-26.428c2.901-3.721,2.227-9.079-1.493-11.981    c-3.721-2.876-9.079-2.21-11.972,1.502l-61.269,78.771l-30.865-30.865l86.067-86.067l23.834,23.834    c3.336,3.337,8.73,3.337,12.066,0l76.792-76.8c0.009,0,0.009,0,0.017-0.009l51.192-51.191    C495.77,28.299,495.77,22.906,492.433,19.569z M376.286,253.493c5.342,1.041,10.743,1.869,16.247,2.227v34.193    c-8.491-0.444-16.879-1.621-25.114-3.354L376.286,253.493z M359.765,249.184l-8.849,33.033    c-8.038-2.603-15.838-5.905-23.398-9.754l17.118-29.636C349.551,245.25,354.577,247.418,359.765,249.184z M264.533,332.802    c0,8.482-3.797,15.898-10.112,20.488l-21.188-21.197l17.195-22.11C258.918,314.251,264.533,322.972,264.533,332.802z     M262.775,266.31l-21.734,27.947c-0.196,0.23-0.375,0.452-0.546,0.7l-25.37,32.606c-2.637,3.396-2.338,8.235,0.708,11.273    l87.834,87.834l-11.034,11.034c-13.722,13.713-25.412,13.713-39.134,0l-68.267-68.267c-2.005-2.005-4.873-2.884-7.646-2.347    c-2.782,0.538-5.12,2.415-6.229,5.018l-50.483,117.786c-2.714,2.321-7.04,5.043-9.941,5.043c-3.345,0-8.576-3.618-11.034-6.033    l-59.708-59.708c-2.44-2.483-6.059-7.714-6.059-11.059c0-3.345,3.618-8.576,6.033-11.034l51.2-51.2    c11.034-11.034,11.034-22.451,11.034-31.633c0-7.851,0-13.534,6.033-19.567l96.367-96.367L262.775,266.31z M230.4,209.803    l-13.534-13.534l79.3-79.3c5.188-5.18,8.346-5.18,13.534,0l6.767,6.767L230.4,209.803z M358.4,141.536L340.6,123.735l38.4-38.4    h35.601L358.4,141.536z" fill="#FFFFFF"/>
	</g>
</g>
<g>
</g>
<g>
</g>
<g>
</g>
<g>
</g>
<g>
</g>
<g>
</g>
<g>
</g>
<g>
</g>
<g>
</g>
<g>
</g>
<g>
</g>
<g>
</g>
<g>
</g>
<g>
</g>
<g>
</g>
</svg>
