<svg xmlns="http://www.w3.org/2000/svg" xmlns:xlink="http://www.w3.org/1999/xlink" version="1.1" id="Layer_1" x="0px" y="0px" viewBox="0 0 447.1 447.1" style="enable-background:new 0 0 447.1 447.1;" xml:space="preserve">
<g transform="translate(0 -540.36)">
	<g>
		<g>
			<circle cx="124.55" cy="834.158" r="8" fill="#FFFFFF"/>
			<circle cx="149.75" cy="801.158" r="8" fill="#FFFFFF"/>
			<circle cx="165.75" cy="858.858" r="8" fill="#FFFFFF"/>
			<path d="M443.65,853.96c-0.1-0.1-0.1-0.3-0.2-0.4c-3.2-6.3-7.4-11.1-12.5-14.3c0.7-6.1,1.4-17.1-0.7-23.9     c-1.9-7.1-6.4-12.3-10.3-17c-2.6-3-5-5.8-6.2-8.6c-0.1-0.1-0.1-0.3-0.2-0.4c-2-3.9-2.8-9-3.7-14.5c-1-6.3-2.1-12.9-5.1-18.9     c-0.1-0.2-0.2-0.4-0.4-0.6c-4-6.3-9.3-10.6-14.4-14.8c-3.4-2.8-6.7-5.5-9.5-8.6l29.7-15.2l-6.8-13.3l-30.8,15.8     c-2.7-5.1-5.8-10.8-10.8-14.9c-0.3-0.2-0.6-0.5-0.9-0.7c-3.2-1.9-6.6-3.1-10-3.8l12.3-17.4l-12.2-8.7l-17.5,24.7     c-5.7-0.1-11.1-0.4-15.2-2.3c-1.2-0.8-2.3-1.9-3.4-3.1l7.2-47.2l-14.8-2.2l-5,33.1c-2.9-2.7-6.2-4.9-10.5-5.9     c-8.6-2.7-16.2,0.8-22.4,3.7l-4.8-15.9l-14.4,4.4l4.2,14c-2.9-1.2-5.8-3.4-8.9-5.6c-3.4-2.4-7-5.1-11-6.9l12.2-25l-13.5-6.6     l-14.4,29.6c-6.6,1.4-12,5.3-16.9,8.9c-1.5,1.1-2.9,2.1-4.3,3.1v-54.4h-15v56.5c-1.4-0.6-2.8-1.2-4.2-1.9     c-2.5-1.2-5.2-2.4-8.2-3.4l-14.5-29.8l-13.5,6.6l11.4,23.4c-7.7,2.7-12.3,9.3-16.4,15.2c-1.4,2-2.8,4-4.2,5.7l-28.6-28.3     l-10.5,10.7l23.5,23.2c-1.4,0-2.8,0-4.3,0c-8.9,0-19.1-0.1-27.2,6.1c-2.5,1.9-4.5,4.1-6.1,6.5l-15.8-21.1l-12,9l21.2,28.4     c-1.4,4.6-2.7,8.9-5,12c-0.1,0.2-0.3,0.3-0.4,0.5c-2.4,3.9-6.5,7.1-10.8,10.5c-5.1,4-10.4,8.2-14.2,14.2     c-0.1,0.2-0.2,0.4-0.4,0.6c-2.9,5.7-3.7,11.9-4.5,17.8c-0.7,5.7-1.4,11-3.9,14.9c0,0,0,0.1-0.1,0.1c-0.8,1.4-3.1,3-5.3,4.5     c-4.1,2.8-9.1,6.4-11.4,12.5c-3.3,7.1-2.2,18.4-1.2,24.8c-5,3.2-9.1,7.9-12.3,14.2c-0.1,0.1-0.1,0.3-0.2,0.4     c-4.6,10.6-4.6,23.7,0,34.3c0.1,0.3,0.2,0.5,0.4,0.8c6.5,11.3,17.9,18.6,28.9,18.6h18.7h0.2c0.1,0,0.1,0,0.2,0h343.8     c0.2,0,0.2,0,0.3,0h0.3h18.1c11.1,0,22.4-7.3,28.9-18.6c0.1-0.2,0.3-0.5,0.4-0.8C448.25,877.76,448.25,864.56,443.65,853.96z      M42.55,892.66h-9.8c-5.6,0-11.9-4.3-15.7-10.7c-2.7-6.6-2.7-15.3,0.1-21.8c3.7-7.2,8.6-10.5,15.6-10.5h10.6     c-1.3,8.4-1.9,17-1.9,25.8c0,0.5,0,1.1,0,1.6c0,0.7,0,1.4,0,2.1C41.45,883.96,41.95,888.36,42.55,892.66z M389.05,892.66H57.95     c-0.7-5.4-1.3-10.7-1.4-15.4c0.6-33.9,17.2-63.1,48-84.6c30.6-21.3,72.8-33,119-33c46.2,0,88.4,11.7,119,33     c30.9,21.5,47.4,50.7,48,84.6C390.45,881.96,389.85,887.26,389.05,892.66z M84.95,788.86c29.2-38.6,78.9-62.6,138.6-62.6     c59.8,0,109.4,23.9,138.6,62.6c-3.5-3-7.2-5.8-11.1-8.5c-33.1-23-78.4-35.7-127.6-35.7s-94.5,12.7-127.6,35.7     C92.05,783.06,88.45,785.96,84.95,788.86z M390.85,806.96c-9.2-19.9-22.4-37.3-39.4-51.9c-33.1-28.4-78.6-44.1-128.2-44.1     c-49.5,0-95,15.6-128.2,44.1c-17,14.6-30.3,32-39.4,51.9c-4,8.8-7.2,17.9-9.6,27.4h-13.3c-0.8,0-1.6,0-2.4,0.1     c-0.6-5.4-0.7-11.4,0.4-13.6c0.2-0.3,0.3-0.6,0.4-1c0.6-1.8,3.2-3.6,6-5.5c3.3-2.3,7-4.9,9.5-9c4.2-6.7,5.2-14.2,6.1-20.9     c0.6-4.8,1.2-9.3,2.8-12.7c2.5-3.7,6.4-6.8,10.6-10.2c5-4,10.2-8.1,14-13.9c3.9-5.3,5.8-11.7,7.5-17.3c1.8-6.2,3.4-11.6,7-14.3     l0.1-0.1c4-3.1,10.8-3.1,18-3.1c7.8,0,15.8,0.1,23.1-3.6c0.2-0.1,0.4-0.2,0.6-0.3c5.7-3.5,9.5-9,12.9-13.9     c3.2-4.7,6.3-9.1,9.7-9.9c0.2-0.1,0.5-0.1,0.7-0.2c3-1,6.5,0.5,11.9,3c5.5,2.6,11.7,5.5,18.9,4.7c8-0.8,14.4-5.4,19.9-9.5     c4.6-3.4,9-6.5,13-6.5s8.4,3.2,13,6.5c5.6,4.1,11.9,8.7,19.8,9.5c7.3,0.8,13.5-2.1,18.9-4.7c5.4-2.6,8.9-4,11.9-3     c0.2,0.1,0.5,0.1,0.7,0.2c3.4,0.8,6.5,5.2,9.7,9.9c3.4,4.9,7.2,10.4,12.9,13.9c0.2,0.1,0.4,0.2,0.6,0.3c7.4,3.7,15.5,3.8,23.3,4     c6.8,0.1,13.3,0.3,18.1,2.8c2.9,2.6,5,6.7,7.2,11.1c2.1,4.1,4.3,8.3,7.4,12.1c4,5.3,8.7,9.1,13.2,12.8c4.3,3.5,8.4,6.8,11,10.9     c1.9,3.8,2.7,8.8,3.5,14.1c1,6.3,2,12.7,5,18.7c2.1,4.7,5.3,8.5,8.5,12.2c3.2,3.8,6.3,7.3,7.3,11.1c0,0.2,0.1,0.4,0.2,0.6     c0.9,2.8,0.8,9.1,0.4,14.8c-0.7,0-1.3-0.1-2-0.1h-13.6C398.05,824.86,394.95,815.76,390.85,806.96z M430.05,881.96     c-3.8,6.4-10.1,10.7-15.7,10.7h-9.9c0.7-4.3,1.1-8.6,1.1-13.5c0-0.7,0-1.4,0-2.1c0-0.5,0-1.1,0-1.6c0-8.8-0.6-17.4-1.9-25.8h10.6     c7.1,0,11.9,3.2,15.6,10.5C432.65,866.76,432.75,875.36,430.05,881.96z" fill="#FFFFFF"/>
		</g>
	</g>
</g>
<g>
</g>
<g>
</g>
<g>
</g>
<g>
</g>
<g>
</g>
<g>
</g>
<g>
</g>
<g>
</g>
<g>
</g>
<g>
</g>
<g>
</g>
<g>
</g>
<g>
</g>
<g>
</g>
<g>
</g>
</svg>
